# xmcd
#
# Track frame offsets:
#	150
#	18880
#	33899
#	49572
#	70414
#	83904
#	98706
#	112566
#	131346
#	146866
#	162973
#	177590
#	197011
#	212341
#	230150
#	245330
#	258502
#	272255
#	289055
#	307308
#
# Disc length: 4317 seconds
# Revision: 0
# Processed by: cddbd v1.5.2PL0 Copyright (c) Steve Scherf et al.
# Submitted via: dBpowerAMP V12.0
#
DISCID=1510db14
DTITLE=Various Artist - Country Radio July 2007
DYEAR=2007
DGENRE=Country
TTITLE0=Faith Hill - Lost
TTITLE1=Dierks Bentley - Free and Easy Down The Road I Go
TTITLE2=Sara Evans - As If
TTITLE3=Keith Anderson - Sunday Morning In America
TTITLE4=Joe Nichols - Another Side Of You
TTITLE5=Brooks and Dunn - Proud Of The House We Built
TTITLE6=Chris Cummings - Love Is Fine
TTITLE7=Tim McGraw - If You're Reading This
TTITLE8=Kenny Chesney - Never Wanted Nothing More
TTITLE9=Martina McBride - How I Feel
TTITLE10=Willie Mack - Gotta Get Me A Cadillac
TTITLE11=Tavis Tritt - Put Some Drive In Your Country
TTITLE12=AMy Dalley - Let's Try Goodbye
TTITLE13=Clint Black - The Strong One
TTITLE14=Crossin Dixon - Guitar Singer
TTITLE15=Danielle Peck - Bad For Me
TTITLE16=Mark Wills - Days Of Thunder
TTITLE17=Katie Armiger - 17 In Abilene
TTITLE18=Blackie and The Rodeo Kings - Down By The Henry Moore
TTITLE19=Cowboy Crush - Some Men
EXTD=
EXTT0=
EXTT1=
EXTT2=
EXTT3=
EXTT4=
EXTT5=
EXTT6=
EXTT7=
EXTT8=
EXTT9=
EXTT10=
EXTT11=
EXTT12=
EXTT13=
EXTT14=
EXTT15=
EXTT16=
EXTT17=
EXTT18=
EXTT19=
PLAYORDER=
